PathFileType	4	(X/Y/Z)	C:/Users/beibeiliu/ov580/test_trc/User2\sequence.5_training_dense_right.trc
DataRate	CameraRate	NumFrames	NumMarkers	Units	OrigDataRate	OrigDataStartFrame	OrigNumFrames
120	120	22	19	mm	120	365	417
Frame#	Time	ThumbCMC			ThumbMCP			ThumbIP			ThumbTip			IndexMCP			IndexPIP			IndexTip			MiddleMCP			MiddlePIP			MiddleTip			RingMCP			RingPIP			RingTip			PinkyMCP			PinkyPIP			PinkyTip			BackHand1			BackHand2			BackHand3	
		X0	Y0	Z0	X1	Y1	Z1	X2	Y2	Z2	X3	Y3	Z3	X4	Y4	Z4	X5	Y5	Z5	X6	Y6	Z6	X7	Y7	Z7	X8	Y8	Z8	X9	Y9	Z9	X10	Y10	Z10	X11	Y11	Z11	X12	Y12	Z12	X13	Y13	Z13	X14	Y14	Z14	X15	Y15	Z15	X16	Y16	Z16	X17	Y17	Z17	X18	Y18	Z18	
364	3.03333	120.911	38.144	69.1803	84.8253	38.8589	64.4194	49.1657	29.0534	52.3354	37.1575	4.16889	53.5772	98.6587	-0.781832	0.779787	81.1655	-2.80836	-18.682	57.4434	-7.26788	-38.5817	77.0362	-25.7418	12.7573	40.9128	-19.8316	19.1413	21.4206	-3.83868	44.1646	68.7235	-31.9003	35.3348	44.0648	-19.2251	53.0827	52.5603	5.10203	77.1088	72.4214	-43.9924	58.8847	52.1828	-22.2827	76.0381	73.6754	1.36225	89.8734	133.401	-32.4888	59.349	155.812	-23.0908	81.9546	147.776	2.17387	56.146	
365	3.04167	123.412	37.9243	69.9181	83.8351	40.5883	62.8252	51.1544	27.0505	51.8663	37.1426	5.83016	51.6416	101.872	-0.847642	1.96825	80.6717	-4.11196	-22.9411	59.8354	-8.80057	-40.2914	78.6448	-24.5663	11.1581	43.8177	-19.5237	14.4525	22.3012	-6.52351	42.5124	71.3473	-32.6891	34.8824	46.2091	-20.6223	47.2413	51.8615	-0.0245383	76.4825	72.1502	-47.2493	59.3066	52.3402	-21.8617	74.4561	73.3066	-0.692149	88.332	132.098	-35.5527	56.9741	157.612	-23.4023	82.8143	149.189	5.41764	56.7459	
366	3.05	124.509	38.5896	71.0006	82.722	40.5881	59.9437	50.4879	29.6402	50.4926	36.9387	3.31838	49.3722	98.2864	-2.95461	-1.64638	76.6377	-8.01444	-20.0151	51.6654	-10.5191	-35.3876	81.1231	-26.2353	13.8018	43.7059	-18.9597	14.5645	22.5655	-4.48931	41.6697	68.4378	-35.5296	36.385	45.0574	-24.2567	50.9083	54.3807	4.23486	76.4679	75.1033	-44.8473	57.0311	53.1433	-20.7069	70.4447	72.8746	0.0149363	84.89	130.934	-32.5121	56.0798	154.302	-26.3793	82.5056	150.138	0.450204	57.1811	
367	3.05833	123.288	35.653	70.5506	85.5218	41.5056	62.1529	51.0859	28.819	53.0749	39.3097	1.8861	52.2109	94.6166	-5.15008	4.04838	68.2851	-6.06649	-13.787	43.3918	-10.4586	-21.4787	78.2471	-25.9682	14.448	44.1784	-22.1678	17.1754	20.0607	-3.48795	48.3086	69.531	-36.4894	38.2224	43.1873	-19.6239	53.9927	56.1064	3.51585	77.1901	70.3734	-47.7384	60.5698	53.4954	-22.6597	72.002	71.4907	-2.80159	85.963	130.951	-36.1801	55.4061	153.958	-29.6089	83.9674	145.624	2.11031	53.7904	
368	3.06667	122.588	36.6846	73.4131	83.9514	36.1453	64.9736	51.4603	27.3924	56.2014	36.1672	-2.03962	53.0663	89.3715	-0.136416	4.86098	64.3734	-6.03996	-6.16102	35.475	-9.03995	-12.4433	79.7646	-25.4069	16.4256	41.1319	-24.6993	21.4279	20.2429	-6.46963	49.7044	70.2582	-36.1124	38.5762	43.1483	-22.5618	57.9445	55.6394	0.253263	81.4938	72.9816	-48.778	61.5384	52.3721	-26.1371	75.2585	71.9486	-4.51625	92.8469	131.32	-35.3026	58.2877	156.188	-26.956	82.8683	147.987	-1.1799	59.1951	
369	3.075	120.474	35.7219	73.6413	85.8489	37.4786	68.863	50.4196	22.2135	56.5227	35.5076	-2.66595	54.9055	85.19	-6.54501	6.7341	60.7396	-9.4141	-3.3112	31.3794	-15.1741	-9.4018	77.4845	-28.8729	18.2471	39.4416	-24.3429	22.8223	19.8789	-7.67631	49.0381	64.6548	-38.5161	41.4101	43.2374	-25.411	54.6655	52.9436	-1.36307	79.2836	72.5282	-46.6287	62.4201	51.5668	-25.9172	78.2654	77.4812	-4.44542	93.0701	132.46	-35.7548	61.2094	151.849	-28.2608	82.6079	146.491	-2.6522	58.7335	
370	3.08333	119.728	35.7104	71.5884	83.8439	35.8426	67.8953	47.8661	23.4281	56.0578	38.6741	-2.20829	55.7166	89.4477	-7.16682	6.83208	65.7639	-9.96291	-7.28695	39.4636	-14.0617	-18.3831	76.1197	-30.7718	18.3619	40.1829	-27.17	22.7783	19.3337	-9.67433	49.6584	68.6462	-39.7325	41.5001	42.3429	-23.6421	58.4359	53.7183	-1.26336	83.6366	68.3884	-47.4954	62.482	52.7633	-22.6043	76.6426	74.7522	-5.00284	92.4037	129.183	-36.6933	60.8403	151.72	-28.9994	84.2023	144.779	-0.669282	59.9372	
371	3.09167	121.199	32.644	75.212	82.1899	35.8079	65.1431	49.7523	24.5712	56.6716	34.6071	-0.221253	54.4162	94.1341	-3.38735	1.19139	71.08	-12.7889	-15.0218	50.1687	-17.3402	-27.9976	78.7794	-29.7545	16.7794	39.224	-22.9546	18.4437	19.6479	-6.71851	46.9488	70.3779	-38.5056	40.0467	43.1109	-25.4647	55.6477	52.6163	-0.992308	80.1757	69.6845	-46.4022	59.8244	52.2549	-24.5225	75.1744	73.8723	-1.82123	87.8985	129.95	-38.2243	58.7123	153.903	-28.9494	86.647	144.56	-3.37028	57.8061	
372	3.1	120.388	37.4307	73.3422	82.5657	36.3688	63.614	48.7416	24.4387	52.9729	34.8728	-1.98235	51.2415	97.9962	-8.03721	-0.0115857	80.1373	-10.465	-21.2883	60.1162	-20.5116	-37.1945	78.5796	-30.6896	14.4099	43.8241	-25.7231	15.2733	20.4528	-7.79529	42.9117	70.917	-40.5472	38.412	43.1268	-20.9531	52.13	51.5772	-4.45243	78.6016	70.2436	-48.9167	59.2669	50.0705	-28.6278	74.8365	71.8586	-4.70019	89.1175	131.534	-36.1229	59.5862	151.814	-27.1256	85.9528	146.465	0.778694	55.316	
373	3.10833	119.957	33.7008	71.1532	84.3069	36.5276	62.0957	51.5281	23.7533	51.0983	35.8469	-2.74173	46.8769	102.615	-7.34571	-0.12897	85.6198	-10.192	-23.4598	65.9988	-22.0479	-41.0035	80.5749	-28.7197	10.2763	46.2483	-29.1691	14.1207	23.0469	-11.2956	39.9629	71.1226	-38.2807	35.4048	44.5383	-22.1536	50.4591	54.0844	0.385305	76.4608	68.7587	-47.669	56.956	50.4196	-28.8363	73.8683	71.1344	-2.99912	84.841	129.343	-36.2316	57.789	151.021	-29.2586	84.1494	145.159	-0.588205	57.4275	
374	3.11667	121.785	34.5523	70.6494	84.4818	38.8823	62.1935	51.5588	25.0588	49.4121	37.8878	-4.05772	45.4473	104.118	-6.73604	2.45795	84.8452	-11.696	-20.6735	61.1039	-21.1256	-38.8211	81.0758	-30.4527	12.7882	46.4092	-27.5909	12.6902	23.4121	-11.9538	40.755	69.6441	-39.655	36.2441	45.5839	-25.5289	47.8472	53.1397	-2.7353	74.8176	69.3843	-49.2343	57.1191	52.1607	-27.5202	69.9859	70.5001	-5.01299	87.0794	134.204	-38.2062	61.9637	154.317	-28.2664	88.836	147.149	-2.72071	55.5617	
375	3.125	122.874	32.0131	72.9827	84.3473	36.2495	61.6493	49.6064	23.5086	48.8363	39.1357	-5.61376	47.8873	98.4511	-6.35396	4.28225	77.3363	-8.82775	-17.0048	48.3392	-18.095	-28.9477	80.5077	-30.9388	14.0156	46.3223	-26.7333	13.6165	22.1093	-10.8053	42.9659	69.8302	-38.6618	36.0353	44.0119	-25.26	52.7215	55.787	0.28566	77.6045	72.9608	-48.159	57.5779	51.6382	-27.1965	73.1045	67.8791	-4.67367	89.1935	132.273	-36.4433	59.9404	153.759	-28.0987	85.124	146.957	1.00691	57.7437	
376	3.13333	119.765	33.2529	70.593	83.5471	40.1756	64.7303	50.0559	22.5084	51.0523	36.6061	-4.37029	49.0468	89.1304	-4.48673	3.02808	63.7041	-8.60729	-11.5533	39.8614	-12.0506	-17.3129	78.4578	-29.9225	16.7455	42.0747	-24.0742	18.1451	19.8039	-5.39953	44.8727	66.3165	-36.9467	36.2669	43.1537	-25.9524	52.529	51.7238	-1.76968	75.4592	68.9839	-46.0674	58.2335	50.2144	-26.6409	77.1284	70.3631	-4.54251	91.5247	130.454	-36.6909	63.8835	154.231	-26.6823	87.537	145.629	-2.84814	56.2339	
377	3.14167	119.653	35.2518	74.5651	81.155	38.4974	62.9907	50.7924	24.0862	54.5094	34.895	-2.10592	51.0012	86.3759	-3.51764	6.25915	59.5239	-10.3057	-5.68684	35.2288	-15.9992	-9.01348	75.6475	-27.0973	15.2412	38.2231	-24.5893	22.1112	19.2835	-6.86465	46.4452	69.3642	-40.8716	40.746	40.6555	-23.3312	56.5834	51.4967	-1.57334	78.3052	71.0097	-48.073	61.3903	49.9755	-24.264	77.1775	66.5243	-3.35141	87.7891	128.097	-36.1375	62.3954	151.134	-29.2553	85.5093	146.794	1.58629	59.0839	
378	3.15	119.702	34.0431	75.5533	80.3465	42.8773	65.4006	48.2159	23.8016	53.9236	36.8415	1.14555	53.9154	90.7961	-2.94062	7.21814	62.3219	-10.3684	-6.42734	33.3049	-13.3581	-15.7148	76.9285	-25.3078	15.4746	40.9431	-26.0294	20.8631	19.3567	-8.20787	46.09	69.2511	-36.9589	39.0046	40.6124	-24.3065	57.479	52.4052	1.28381	78.584	68.5609	-47.406	61.6076	50.0676	-24.1072	74.8413	69.5913	-3.90879	91.5066	127.761	-34.7853	62.0792	154.412	-23.7398	87.641	143.464	-0.186836	58.4739	
379	3.15833	117.296	37.9206	70.2277	82.2595	37.2613	62.7934	51.2994	26.7884	54.6427	37.5056	1.86901	52.2131	93.863	-5.26711	6.09168	70.6233	-8.56519	-11.0197	43.5928	-16.0768	-23.8898	76.5809	-29.6013	15.8455	42.3481	-24.8232	19.2555	19.4854	-9.02886	46.3043	67.0548	-35.2518	37.9005	42.9499	-23.7212	51.527	50.7978	-1.85524	79.2484	69.8135	-49.1297	62.8453	50.0462	-22.4702	75.4031	69.2883	-0.318362	89.427	130.13	-37.5382	63.8303	150.639	-29.0834	85.2971	144.83	1.10644	62.5793	
380	3.16667	120.776	39.9151	73.9578	82.8391	38.1564	61.1189	50.9278	29.7864	50.5305	37.2776	0.965834	47.9536	96.6736	-6.57639	0.436699	79.4894	-8.52623	-17.2845	54.8036	-19.1701	-33.7167	79.9424	-27.3673	14.452	42.863	-24.2459	16.8232	20.0582	-3.45672	43.2439	66.553	-37.6021	36.7185	43.4433	-24.1291	51.832	51.2842	2.319	73.8563	73.1982	-46.1166	57.7847	50.6356	-21.1426	74.632	67.8714	-2.86846	88.054	129.733	-32.0352	61.26	149.859	-26.4666	85.3585	145.852	2.82389	56.4552	
381	3.175	121.065	38.3155	72.1737	82.6129	39.0459	58.0929	50.2273	30.2769	48.5946	37.445	-1.5719	44.8015	102.973	-1.98367	0.938626	83.9807	-11.1088	-23.1665	64.8645	-15.55	-42.7748	82.8872	-26.5561	11.0264	44.0357	-23.2002	13.6356	23.5826	-7.01149	37.5505	67.779	-34.3116	34.2063	43.8545	-23.423	51.0867	54.3182	4.11067	74.1174	70.2983	-43.9386	56.3979	52.3732	-21.6681	69.6567	69.212	-2.01182	87.5524	131.324	-36.1226	58.9234	151.82	-27.2817	85.2349	147.733	3.31898	57.2437	
382	3.18333	118.82	37.8528	68.8033	83.3717	39.741	58.6535	51.0258	27.1991	45.1378	40.7327	-1.30176	44.8676	104.862	-3.66645	-0.434576	88.1762	-11.5471	-23.5961	68.6355	-16.051	-41.2206	86.8337	-25.992	11.0117	50.2424	-23.6528	8.80493	23.7398	-10.7667	35.7991	71.5856	-39.2398	36.0083	44.2471	-23.483	50.725	53.981	0.178236	76.8648	74.2378	-46.7805	56.8687	52.2129	-23.1903	71.8072	72.2369	-1.21982	83.9406	129.816	-37.7724	61.2387	152.711	-28.2104	90.1028	148.374	3.42231	58.9788	
383	3.19167	122.044	34.1104	75.1517	84.5482	38.1362	59.9066	52.9008	24.5285	46.9227	37.9703	0.425149	42.7151	104.76	-2.92452	0.56209	83.5741	-13.2686	-20.1459	58.8398	-19.747	-36.2773	84.3354	-27.2936	10.9839	48.4796	-23.7422	9.34733	23.2324	-8.18394	38.5368	71.8682	-39.5769	35.0265	44.2864	-22.9013	50.6264	52.1287	-1.345	72.867	69.4082	-46.8054	56.9771	51.8236	-23.246	73.5297	72.226	0.36457	84.4241	131.927	-34.5554	60.4014	152.474	-28.6938	90.3194	149.227	0.0206592	62.7725	
384	3.2	121.187	34.581	75.04	82.5495	39.4796	59.4731	54.7736	25.9843	51.3871	40.1428	-0.390368	45.6107	98.6565	-3.19007	3.69248	75.6049	-8.38169	-13.0462	47.6019	-16.1361	-22.6098	81.7751	-25.7528	12.0785	43.877	-22.0846	14.1618	21.8217	-7.18237	38.4848	73.5828	-37.0808	36.7766	44.61	-26.986	48.8822	53.7888	0.342633	74.269	69.8121	-48.3387	58.0462	52.4576	-22.7751	71.9149	71.3201	-1.19778	89.4525	129.806	-37.6691	60.4458	151.934	-27.0388	89.6999	147.935	0.654266	60.0224	
385	3.20833	118.325	33.793	73.9764	83.8685	37.7987	64.5901	51.0815	24.319	51.5775	38.2515	-1.32953	50.4168	91.9493	-6.46837	10.3578	63.3375	-13.0899	-5.25086	36.4724	-15.2169	-13.6992	79.0278	-30.4739	17.0152	39.7736	-27.1822	20.6695	20.2535	-7.90106	42.6847	70.1617	-38.0789	38.5101	43.2076	-27.8296	51.9077	51.3532	-5.61977	80.1184	68.7283	-50.6627	61.3046	50.5633	-26.1723	74.686	68.3855	-3.87673	88.2681	131.872	-37.0691	63.3112	149.434	-29.7476	86.8816	146.414	1.90483	60.4531	
